<svg xmlns="http://www.w3.org/2000/svg" width="40" height="40" viewBox="0 0 40 40" fill="none">
    <path d="M36.2061 0.00488281C38.3194 0.112115 40 1.85996 40 4V36L39.9951 36.2061C39.8913 38.2512 38.2512 39.8913 36.2061 39.9951L36 40H4L3.79395 39.9951C1.7488 39.8913 0.108652 38.2512 0.00488281 36.2061L0 36V4C0 1.85996 1.68056 0.112115 3.79395 0.00488281L4 0H36L36.2061 0.00488281ZM4 2C2.89543 2 2 2.89543 2 4V25.2666L14.6543 22.3135C15.5482 22.1049 16.4639 22 17.3818 22H22.6182C23.5361 22 24.4518 22.1049 25.3457 22.3135L38 25.2666V4C38 2.89543 37.1046 2 36 2H4ZM10.9092 7.27246C12.9175 7.27249 14.5459 8.90089 14.5459 10.9092C14.5459 12.9174 12.9174 14.5459 10.9092 14.5459C8.9009 14.5459 7.27251 12.9174 7.27246 10.9092C7.27246 8.90087 8.90087 7.27246 10.9092 7.27246Z" fill="#CDCDCD"/>
</svg>
