<svg xmlns="http://www.w3.org/2000/svg" width="32" height="32" viewBox="0 0 32 32" fill="none">
    <path fill-rule="evenodd" clip-rule="evenodd" d="M7.18661 13.5L14.7628 5.92389L15.7056 6.8667L8.12942 14.4428L7.18661 13.5Z" fill="#999999"/>
    <path fill-rule="evenodd" clip-rule="evenodd" d="M9.70077 16.0142L17.2769 8.43805L18.2197 9.38086L10.6436 16.957L9.70077 16.0142Z" fill="#999999"/>
    <path fill-rule="evenodd" clip-rule="evenodd" d="M15.0433 21.3565L22.6194 13.7803L23.5623 14.7231L15.9861 22.2993L15.0433 21.3565Z" fill="#999999"/>
    <path fill-rule="evenodd" clip-rule="evenodd" d="M17.5575 23.8706L25.1336 16.2945L26.0764 17.2373L18.5003 24.8134L17.5575 23.8706Z" fill="#999999"/>
    <path fill-rule="evenodd" clip-rule="evenodd" d="M17.5574 23.8709C14.9423 26.486 10.7118 26.4954 8.10829 23.8919C5.50479 21.2884 5.51421 17.0579 8.12933 14.4428L7.18652 13.5C4.04838 16.6381 4.03708 21.7148 7.16127 24.839C10.2855 27.9632 15.3621 27.9518 18.5002 24.8137L17.5574 23.8709Z" fill="#999999"/>
    <path fill-rule="evenodd" clip-rule="evenodd" d="M22.6195 13.7806L23.5623 14.7234C26.003 12.2826 26.0118 8.3341 23.5819 5.90417C21.152 3.47424 17.2035 3.48303 14.7627 5.92381L15.7055 6.86662C17.6233 4.94887 20.7257 4.94196 22.6349 6.85119C24.5441 8.76042 24.5372 11.8628 22.6195 13.7806Z" fill="#999999"/>
    <path fill-rule="evenodd" clip-rule="evenodd" d="M9.70093 16.0146C7.95752 17.7581 7.95123 20.5784 9.6869 22.3141C11.4226 24.0497 14.2429 24.0435 15.9863 22.3L15.0435 21.3572C13.8231 22.5776 11.8489 22.582 10.6339 21.3671C9.41895 20.1521 9.42335 18.1778 10.6437 16.9575L9.70093 16.0146Z" fill="#999999"/>
</svg>