<svg id="colored_line" viewBox="0 0 16 16" xmlns="http://www.w3.org/2000/svg"><g><path d="m14.5 0h-11c-.276 0-.5.224-.5.5s.224.5.5.5h11c.275 0 .5.224.5.5v8c0 .276-.225.5-.5.5h-10c-.133 0-.26.053-.354.146l-3.146 3.147v-11.793c0-.276.225-.5.5-.5.276 0 .5-.224.5-.5s-.224-.5-.5-.5c-.827 0-1.5.673-1.5 1.5v13c0 .446.541.666.854.354l3.853-3.854h9.793c.827 0 1.5-.673 1.5-1.5v-8c0-.827-.673-1.5-1.5-1.5z" fill="#99999c"></path><path d="m8 3.5c-.276 0-.5.224-.5.5v1h-1c-.276 0-.5.224-.5.5s.224.5.5.5h1v1c0 .276.224.5.5.5s.5-.224.5-.5v-1h1c.276 0 .5-.224.5-.5s-.224-.5-.5-.5h-1v-1c0-.276-.224-.5-.5-.5z" fill="#99999c"></path></g></svg>
